<svg id="Layer_3" enable-background="new 0 0 64 64" height="512" viewBox="0 0 64 64" width="512" xmlns="http://www.w3.org/2000/svg"><path d="m51 7v22h-48v-22c0-2.21 1.79-4 4-4h40c2.21 0 4 1.79 4 4z" fill="#edfcfc"/><path d="m9 7h36v22h-36z" fill="#d5dbdb"/><path d="m9 7h36v8h-36z" fill="#fda22e"/><path d="m26.63 48 .41-.38c-.37-.96-.64-1.96-.81-3l-3.13-.73c-.07-.62-.1-1.25-.1-1.89s.03-1.27.1-1.89l3.13-.73c.13-.82.33-1.61.59-2.38.07-.21.14-.42.22-.62l-2.34-2.19c.52-1.16 1.15-2.25 1.89-3.27l3.05.92c.66-.8 1.4-1.54 2.2-2.2l-.19-.64-.73-2.41c1.02-.74 2.11-1.37 3.27-1.9l2.19 2.35c.96-.37 1.96-.64 3-.81l.73-3.13c.62-.07 1.25-.1 1.89-.1s1.27.03 1.89.1l.73 3.13c1.04.17 2.04.44 3 .81l2.19-2.34c.41.18.8.38 1.19.59.72.38 1.42.82 2.08 1.3l-.92 3.05c.8.66 1.54 1.4 2.2 2.2l3.05-.92c.74 1.02 1.37 2.11 1.9 3.27l-2.35 2.19c.37.96.64 1.96.81 3l3.13.73c.07.62.1 1.25.1 1.89s-.03 1.27-.1 1.89l-3.13.73c-.17 1.04-.44 2.04-.81 3l2.34 2.19c-.52 1.16-1.15 2.25-1.89 3.27l-3.05-.92c-.66.8-1.4 1.54-2.2 2.2l.92 3.05c-1.02.74-2.11 1.37-3.27 1.9l-2.19-2.35c-.96.37-1.96.64-3 .81l-.73 3.13c-.62.07-1.25.1-1.89.1s-1.27-.03-1.89-.1l-.73-3.13c-1.04-.17-2.04-.44-3-.81l-2.19 2.34c-1.16-.52-2.25-1.15-3.27-1.89l.92-3.05c-.8-.66-1.54-1.4-2.2-2.2l-3.05.92c-.25-.35-.5-.71-.72-1.08-.44-.7-.83-1.43-1.18-2.19zm21.37-6c0-3.31-2.69-6-6-6s-6 2.69-6 6 2.69 6 6 6 6-2.69 6-6z" fill="#f82f45"/><path d="m42 34c-4.418 0-8 3.582-8 8s3.582 8 8 8 8-3.582 8-8-3.582-8-8-8zm0 14c-3.314 0-6-2.686-6-6s2.686-6 6-6 6 2.686 6 6-2.686 6-6 6z" fill="#d22435"/><path d="m26.63 48-1.94 1.81c.35.76.74 1.49 1.18 2.19h-12.87c-2.21 0-4-1.79-4-4z" fill="#4bbee5"/><path d="m26.23 44.62c.17 1.04.44 2.04.81 3l-.41.38h-11.63l4-11h7.82c-.26.77-.46 1.56-.59 2.38l-3.13.73c-.07.62-.1 1.25-.1 1.89s.03 1.27.1 1.89z" fill="#3c7eb0"/><path d="m3 29h28.65l.19.64c-.8.66-1.54 1.4-2.2 2.2l-3.05-.92c-.74 1.02-1.37 2.11-1.89 3.27l2.34 2.19c-.08.2-.15.41-.22.62h-19.82c-2.21 0-4-1.79-4-4z" fill="#4bbee5"/><g fill="#171526"><path d="m61.132 39.137-2.501-.584c-.132-.639-.301-1.271-.506-1.891l1.863-1.747c.312-.292.404-.751.228-1.142-.544-1.202-1.214-2.359-1.993-3.441-.25-.347-.691-.497-1.103-.372l-2.424.736c-.437-.49-.902-.956-1.394-1.393l.738-2.423c.124-.409-.025-.852-.372-1.102-.538-.388-1.095-.749-1.668-1.081v-17.697c0-2.757-2.243-5-5-5h-40c-2.757 0-5 2.243-5 5v26c0 2.757 2.243 5 5 5h10.573l-3.273 9h-5.3c-.553 0-1 .448-1 1 0 2.757 2.243 5 5 5h12.345c.146.221.277.452.432.667.25.347.689.497 1.103.372l2.424-.736c.437.49.902.956 1.394 1.393l-.738 2.423c-.124.409.025.852.372 1.102 1.08.779 2.238 1.45 3.442 1.994.391.177.849.086 1.142-.228l1.746-1.864c.618.205 1.251.374 1.892.506l.584 2.502c.098.417.449.726.876.768.674.067 1.343.101 1.986.101s1.312-.034 1.987-.1c.427-.042.778-.351.876-.768l.584-2.502c.641-.132 1.273-.301 1.892-.506l1.746 1.864c.294.313.753.405 1.142.228 1.2-.543 2.358-1.214 3.44-1.994.348-.25.497-.693.373-1.103l-.737-2.424c.491-.437.957-.903 1.394-1.393l2.424.737c.407.125.853-.025 1.103-.372.778-1.081 1.449-2.238 1.993-3.441.177-.39.085-.849-.228-1.142l-1.863-1.747c.205-.62.374-1.252.506-1.892l2.501-.584c.417-.097.726-.449.768-.875.065-.672.099-1.341.099-1.986s-.034-1.314-.101-1.988c-.042-.426-.35-.778-.767-.875zm-54.132-35.137h40c1.654 0 3 1.346 3 3v16.721c-.33-.063-.676.036-.915.29l-1.746 1.864c-.618-.205-1.251-.374-1.892-.506l-.584-2.502c-.098-.417-.449-.726-.876-.768-1.352-.133-2.623-.133-3.975 0-.427.042-.778.351-.876.768l-.584 2.502c-.641.132-1.273.301-1.892.506l-1.746-1.864c-.293-.312-.751-.404-1.142-.228-1.2.543-2.358 1.214-3.44 1.994-.348.25-.497.693-.373 1.103l.342 1.12h-20.301v-12h10v-2h-10v-6h34v12h2v-13c0-.552-.447-1-1-1h-36c-.553 0-1 .448-1 1v21h-4v-21c0-1.654 1.346-3 3-3zm23 26c-.232.232-.479.451-.697.696l-2.291-.696zm-26 3v-3h22.209c-.168.069-.32.177-.432.332-.778 1.081-1.449 2.238-1.993 3.441-.177.39-.085.849.228 1.142l1.158 1.085h-18.17c-1.654 0-3-1.346-3-3zm15.7 5h5.8c-.045.184-.093.367-.131.553l-2.501.584c-.417.097-.726.449-.768.875-.066.674-.1 1.343-.1 1.988s.034 1.313.101 1.988c.042.426.351.778.768.875l2.501.584c.108.525.258 1.04.415 1.553h-9.357zm-6.7 13c-1.304 0-2.416-.836-2.829-2h13.931l-.091.085c-.312.292-.404.751-.228 1.142.119.263.267.515.398.773zm46.966-7.918-2.427.567c-.394.092-.693.412-.759.811-.158.957-.411 1.903-.752 2.811-.142.378-.042.805.253 1.081l1.806 1.693c-.321.642-.685 1.268-1.083 1.87l-2.351-.715c-.388-.119-.807.009-1.063.321-.618.752-1.314 1.448-2.069 2.069-.312.257-.438.676-.321 1.063l.715 2.351c-.604.399-1.229.762-1.87 1.084l-1.692-1.807c-.276-.295-.706-.395-1.081-.252-.905.34-1.851.593-2.812.752-.399.066-.719.365-.811.759l-.566 2.427c-.736.045-1.428.045-2.164 0l-.566-2.427c-.092-.394-.411-.693-.811-.759-.961-.159-1.906-.413-2.812-.752-.377-.142-.806-.043-1.081.252l-1.692 1.807c-.643-.322-1.269-.685-1.871-1.084l.716-2.35c.117-.387-.01-.806-.321-1.063-.754-.62-1.45-1.316-2.069-2.069-.257-.312-.677-.439-1.063-.321l-2.351.714c-.399-.603-.762-1.228-1.084-1.87l1.807-1.693c.295-.276.395-.703.253-1.081-.341-.909-.594-1.855-.752-2.812-.065-.399-.365-.719-.759-.811l-2.427-.567c-.024-.366-.036-.728-.036-1.081s.012-.715.034-1.082l2.427-.567c.394-.092.693-.412.759-.811.158-.958.411-1.904.752-2.811.143-.378.043-.805-.252-1.082l-1.807-1.693c.321-.642.685-1.267 1.083-1.87l2.351.714c.387.117.807-.01 1.063-.321.619-.752 1.314-1.448 2.069-2.069.312-.257.438-.676.321-1.063l-.715-2.351c.604-.399 1.229-.762 1.87-1.084l1.692 1.807c.275.295.704.394 1.081.252.905-.34 1.851-.593 2.812-.752.399-.066.719-.365.811-.759l.566-2.427c.736-.045 1.428-.045 2.164 0l.566 2.427c.092.394.411.693.811.759.961.159 1.906.413 2.812.752.375.142.805.042 1.081-.252l1.692-1.807c.643.322 1.269.685 1.871 1.084l-.716 2.35c-.117.387.01.806.321 1.063.754.62 1.45 1.316 2.069 2.069.257.312.676.44 1.063.321l2.351-.714c.399.603.762 1.228 1.084 1.87l-1.807 1.693c-.295.276-.395.703-.253 1.081.341.909.594 1.855.752 2.812.065.399.365.719.759.811l2.427.567c.024.368.036.73.036 1.083s-.012.715-.034 1.082z"/><path d="m49 42c0-3.86-3.141-7-7-7s-7 3.14-7 7 3.141 7 7 7 7-3.14 7-7zm-7 5c-2.757 0-5-2.243-5-5s2.243-5 5-5 5 2.243 5 5-2.243 5-5 5z"/><path d="m33.895 36.142-1.619-1.173c-.421.58-.791 1.202-1.101 1.848l1.803.865c.258-.538.567-1.057.917-1.54z"/><path d="m41.521 32.012-.094-1.998c-.717.034-1.434.132-2.131.292l.449 1.949c.582-.133 1.179-.215 1.776-.243z"/><path d="m49.451 32.593-1.244 1.566c.468.371.906.787 1.302 1.236l1.5-1.322c-.474-.537-.998-1.035-1.558-1.48z"/><path d="m32.364 44.681-1.928.532c.189.688.445 1.365.759 2.013l1.801-.871c-.262-.54-.474-1.104-.632-1.674z"/><path d="m37.238 33.204-.955-1.758c-.628.341-1.229.742-1.789 1.19l1.252 1.56c.466-.374.968-.708 1.492-.992z"/><path d="m51.841 43.786 1.969.355c.126-.7.19-1.42.19-2.141v-.043l-2 .043c0 .602-.054 1.203-.159 1.786z"/><path d="m42.459 51.99.09 1.998c.718-.033 1.435-.129 2.132-.288l-.445-1.95c-.581.132-1.178.213-1.777.24z"/><path d="m50.094 47.875 1.617 1.177c.421-.579.793-1.2 1.104-1.846l-1.801-.868c-.26.537-.57 1.055-.92 1.537z"/><path d="m51.631 39.301 1.928-.535c-.191-.689-.449-1.366-.765-2.013l-1.797.876c.262.538.476 1.1.634 1.672z"/><path d="m46.745 50.805.949 1.76c.629-.339 1.232-.738 1.793-1.187l-1.248-1.562c-.468.373-.97.706-1.494.989z"/><path d="m37.295 53.043c.66.282 1.35.504 2.049.662l.439-1.951c-.581-.131-1.154-.316-1.703-.551z"/><path d="m34.479 48.59-1.504 1.318c.473.539.996 1.038 1.557 1.484l1.244-1.565c-.467-.371-.904-.787-1.297-1.237z"/><path d="m46.683 30.948c-.658-.28-1.348-.501-2.05-.658l-.438 1.951c.584.131 1.158.315 1.704.548z"/><path d="m32.155 40.234-1.969-.351c-.124.694-.186 1.406-.186 2.117v.022l2-.022c0-.593.053-1.188.155-1.766z"/><path d="m37.707 11.293-1.414 1.414 2.293 2.293h-12.586c-2.757 0-5 2.243-5 5v6h2v-6c0-1.654 1.346-3 3-3h12.586l-2.293 2.293 1.414 1.414 4-4c.391-.391.391-1.023 0-1.414z"/><path d="m12 10h2v2h-2z"/><path d="m16 10h2v2h-2z"/><path d="m20 10h2v2h-2z"/></g></svg>